<svg width="294" height="220" viewBox="0 0 294 220" fill="none" xmlns="http://www.w3.org/2000/svg">
<path d="M173.92 48.6953C165.032 48.6953 156.232 50.4459 148.02 53.8471C139.809 57.2484 132.348 62.2337 126.063 68.5183C119.779 74.803 114.793 82.264 111.392 90.4753C107.991 98.6866 106.24 107.487 106.24 116.375C106.24 125.263 107.991 134.064 111.392 142.275C114.793 150.487 119.779 157.948 126.063 164.232C132.348 170.517 139.809 175.502 148.02 178.903C156.232 182.305 165.032 184.055 173.92 184.055C182.808 184.055 191.609 182.305 199.82 178.903C208.032 175.502 215.493 170.517 221.777 164.232C228.062 157.948 233.047 150.487 236.448 142.275C239.85 134.064 241.6 125.263 241.6 116.375C241.6 107.487 239.85 98.6866 236.448 90.4753C233.047 82.264 228.062 74.803 221.777 68.5183C215.493 62.2337 208.032 57.2484 199.82 53.8471C191.609 50.4459 182.808 48.6953 173.92 48.6953V48.6953Z" fill="#E8BF41"/>
<path d="M240.23 132.515C240.065 132.515 239.895 132.5 239.725 132.465C238.37 132.185 237.5 130.865 237.78 129.51C238.66 125.23 239.105 120.81 239.105 116.375C239.105 80.4353 209.865 51.1953 173.925 51.1953C153.815 51.1953 135.135 60.2653 122.685 76.0903C121.835 77.1703 120.26 77.3603 119.175 76.5053C118.09 75.6503 117.905 74.0853 118.755 72.9953C132.165 55.9653 152.27 46.1953 173.925 46.1953C212.62 46.1953 244.105 77.6803 244.105 116.375C244.105 121.145 243.625 125.9 242.68 130.515C242.43 131.7 241.39 132.515 240.23 132.515Z" fill="#472B29"/>
<path d="M191.455 73.125C197.08 75.5 202.145 78.94 206.4 83.19Z" fill="#E8BF41"/>
<path d="M206.4 85.69C205.76 85.69 205.12 85.445 204.635 84.96C200.54 80.875 195.78 77.665 190.485 75.435C189.215 74.9 188.615 73.43 189.155 72.16C189.69 70.885 191.16 70.3 192.43 70.825C198.32 73.31 203.615 76.875 208.165 81.425C209.145 82.395 209.145 83.985 208.17 84.96C207.68 85.445 207.04 85.69 206.4 85.69Z" fill="#472B29"/>
<path d="M136.185 87.3955C144.795 76.4555 158.16 69.4355 173.16 69.4355Z" fill="#E8BF41"/>
<path d="M136.185 89.8954C135.645 89.8954 135.1 89.7204 134.64 89.3604C133.555 88.5054 133.37 86.9354 134.22 85.8504C143.685 73.8354 157.875 66.9404 173.16 66.9404C174.54 66.9404 175.66 68.0604 175.66 69.4404C175.66 70.8204 174.54 71.9404 173.16 71.9404C159.415 71.9404 146.66 78.1354 138.15 88.9454C137.66 89.5654 136.925 89.8954 136.185 89.8954Z" fill="#472B29"/>
<path d="M33.57 216.5C16.99 216.5 3.5 202.1 3.5 184.4C3.5 166.695 16.99 152.295 33.57 152.295C35.73 152.295 37.95 152.565 40.17 153.1L44.36 154.11L44.49 149.8C45.455 117.44 70.015 92.0947 100.415 92.0947C121.78 92.0947 140.99 104.79 150.54 125.23L152.905 130.28L156.425 125.96C164.035 116.62 175.02 111.265 186.57 111.265C207.195 111.265 224.67 128.42 226.36 150.325L226.685 154.595L230.805 153.43C233.425 152.685 236.04 152.305 238.57 152.305C246.565 152.305 254.09 155.615 259.76 161.63C265.485 167.705 268.635 175.79 268.635 184.41C268.635 202.11 255.145 216.51 238.56 216.51H33.57V216.5Z" fill="#33BBD9"/>
<path d="M100.415 95.5899C120.405 95.5899 138.4 107.515 147.37 126.71L152.095 136.815L159.14 128.17C166.08 119.65 176.08 114.76 186.57 114.76C205.375 114.76 221.32 130.495 222.87 150.59L223.53 159.13L231.77 156.785C234.07 156.13 236.36 155.8 238.575 155.8C245.595 155.8 252.22 158.72 257.22 164.03C262.33 169.45 265.145 176.685 265.14 184.405C265.14 200.175 253.22 213.005 238.565 213.005H33.575C18.925 213.005 7 200.175 7 184.405C7 168.635 18.92 155.805 33.575 155.805C35.46 155.805 37.405 156.045 39.36 156.515L47.735 158.53L47.99 149.92C48.9 119.45 71.925 95.5899 100.415 95.5899ZM100.415 88.5898C68.185 88.5898 42.005 115.78 40.995 149.695C38.6 149.12 36.125 148.795 33.575 148.795C15.03 148.795 0 164.735 0 184.395C0 204.06 15.03 219.995 33.575 219.995C35.73 219.995 236.41 219.995 238.57 219.995C257.115 219.995 272.145 204.055 272.145 184.395C272.15 164.73 257.12 148.795 238.58 148.795C235.555 148.795 232.645 149.255 229.855 150.05C228.03 126.38 209.375 107.76 186.575 107.76C173.435 107.76 161.685 113.97 153.715 123.745C143.985 102.93 123.805 88.5898 100.415 88.5898Z" fill="#472B29"/>
<path d="M185.75 200H170.75C169.37 200 168.25 198.88 168.25 197.5C168.25 196.12 169.37 195 170.75 195H185.75C187.13 195 188.25 196.12 188.25 197.5C188.25 198.88 187.13 200 185.75 200Z" fill="#472B29"/>
<path d="M150.75 200H35.75C34.37 200 33.25 198.88 33.25 197.5C33.25 196.12 34.37 195 35.75 195H150.75C152.13 195 153.25 196.12 153.25 197.5C153.25 198.88 152.13 200 150.75 200Z" fill="#472B29"/>
<path d="M220.75 200H200.75C199.37 200 198.25 198.88 198.25 197.5C198.25 196.12 199.37 195 200.75 195H220.75C222.13 195 223.25 196.12 223.25 197.5C223.25 198.88 222.13 200 220.75 200Z" fill="#472B29"/>
<path d="M175.75 35C174.37 35 173.25 33.88 173.25 32.5V2.5C173.25 1.12 174.37 0 175.75 0C177.13 0 178.25 1.12 178.25 2.5V32.5C178.25 33.88 177.13 35 175.75 35Z" fill="#472B29"/>
<path d="M290.75 130H260.75C259.37 130 258.25 128.88 258.25 127.5C258.25 126.12 259.37 125 260.75 125H290.75C292.13 125 293.25 126.12 293.25 127.5C293.25 128.88 292.13 130 290.75 130Z" fill="#472B29"/>
<path d="M233.715 63.425C233.075 63.425 232.435 63.18 231.945 62.695C230.97 61.72 230.97 60.135 231.945 59.16L253.365 37.74C254.34 36.765 255.925 36.765 256.9 37.74C257.875 38.715 257.875 40.3 256.9 41.275L235.48 62.695C234.995 63.18 234.355 63.425 233.715 63.425Z" fill="#472B29"/>
<path d="M121.86 57.3653C121.22 57.3653 120.58 57.1203 120.09 56.6353L98.6697 35.2204C97.6947 34.2454 97.6947 32.6604 98.6697 31.6854C99.6447 30.7104 101.23 30.7104 102.205 31.6854L123.625 53.1003C124.6 54.0753 124.6 55.6603 123.625 56.6353C123.14 57.1203 122.5 57.3653 121.86 57.3653Z" fill="#472B29"/>
</svg>
